HIERARCHY
ROOT Hips
{
    OFFSET 0.000000 0.000000 0.000000
    CHANNELS 6 Xposition Yposition Zposition Zrotation Xrotation Yrotation
    JOINT Spine
    {
        OFFSET -0.000000 0.071730 0.000000
        CHANNELS 3 Zrotation Xrotation Yrotation
        JOINT Spine1
        {
            OFFSET -0.000000 0.222084 0.000000
            CHANNELS 3 Zrotation Xrotation Yrotation
            JOINT Neck
            {
                OFFSET -0.000000 0.239579 0.000000
                CHANNELS 3 Zrotation Xrotation Yrotation
                JOINT Head
                {
                    OFFSET -0.000000 0.173000 0.022323
                    CHANNELS 3 Zrotation Xrotation Yrotation
                    End Site
                    {
                        OFFSET -0.000000 0.174952 0.000000
                    }
                }
            }
            JOINT LeftShoulder
            {
                OFFSET 0.034080 0.200295 -0.001792
                CHANNELS 3 Zrotation Xrotation Yrotation
                JOINT LeftArm
                {
                    OFFSET 0.119094 0.000000 0.000000
                    CHANNELS 3 Zrotation Xrotation Yrotation
                    JOINT LeftForeArm
                    {
                        OFFSET 0.257600 0.000000 0.000000
                        CHANNELS 3 Zrotation Xrotation Yrotation
                        JOINT LeftHand
                        {
                            OFFSET 0.218783 0.000000 0.000000
                            CHANNELS 3 Zrotation Xrotation Yrotation
                            End Site
                            {
                                OFFSET 0.131214 0.000000 0.000000
                            }
                        }
                    }
                }
            }
            JOINT RightShoulder
            {
                OFFSET -0.035127 0.200295 -0.001792
                CHANNELS 3 Zrotation Xrotation Yrotation
                JOINT RightArm
                {
                    OFFSET -0.119094 0.000000 0.000000
                    CHANNELS 3 Zrotation Xrotation Yrotation
                    JOINT RightForeArm
                    {
                        OFFSET -0.257600 0.000000 0.000000
                        CHANNELS 3 Zrotation Xrotation Yrotation
                        JOINT RightHand
                        {
                            OFFSET -0.218783 0.000000 0.000000
                            CHANNELS 3 Zrotation Xrotation Yrotation
                            End Site
                            {
                                OFFSET -0.131214 0.000000 0.000000
                            }
                        }
                    }
                }
            }
        }
    }
    JOINT LeftUpLeg
    {
        OFFSET 0.087476 0.000000 0.000000
        CHANNELS 3 Zrotation Xrotation Yrotation
        JOINT LeftLeg
        {
            OFFSET -0.000000 -0.348019 0.000000
            CHANNELS 3 Zrotation Xrotation Yrotation
            JOINT LeftFoot
            {
                OFFSET -0.000000 -0.348565 0.000000
                CHANNELS 3 Zrotation Xrotation Yrotation
                JOINT LeftToeBase
                {
                    OFFSET -0.000000 -0.056859 0.131214
                    CHANNELS 3 Zrotation Xrotation Yrotation
                    End Site
                    {
                        OFFSET -0.000000 0.000000 0.034990
                    }
                }
            }
        }
    }
    JOINT RightUpLeg
    {
        OFFSET -0.087476 0.000000 0.000000
        CHANNELS 3 Zrotation Xrotation Yrotation
        JOINT RightLeg
        {
            OFFSET -0.000000 -0.348019 0.000000
            CHANNELS 3 Zrotation Xrotation Yrotation
            JOINT RightFoot
            {
                OFFSET -0.000000 -0.348565 0.000000
                CHANNELS 3 Zrotation Xrotation Yrotation
                JOINT RightToeBase
                {
                    OFFSET -0.000000 -0.056859 0.131214
                    CHANNELS 3 Zrotation Xrotation Yrotation
                    End Site
                    {
                        OFFSET -0.000000 0.000000 0.034990
                    }
                }
            }
        }
    }
}
MOTION
Frames:    9
Frame Time:    0.010000
-0.286467    0.730270    0.227391    0.083833    4.744991    176.556412    0.561347    1.886729    -0.049969    -1.354073    -2.983111    -0.048140    0.972009    9.235832    -22.483206    4.916450    -3.570582    -23.442877    14.452654    0.665359    11.716839    -23.523882    -3.042930    -18.930567    -0.407610    17.422796    -2.788874    -0.717766    17.420591    -1.212716    -14.653970    -4.929438    8.754101    23.615820    1.544047    2.149854    2.901284    7.476492    3.993909    -1.084531    7.388121    -1.273887    -2.146682    14.338419    -4.582772    3.238586    1.130222    -0.334370    -0.462930    -7.095811    15.147792    0.000000    0.000000    0.000000    1.625481    11.650789    3.493783    -3.716255    2.190767    0.831465    1.624583    -5.539752    -0.513598    0.000000    0.000000    0.000000    
-0.286585    0.730336    0.227573    0.045018    4.700543    176.572006    0.553708    1.841881    -0.032358    -1.378415    -2.995006    -0.052127    0.938320    9.251390    -22.519291    4.945523    -3.585207    -23.488935    14.448341    0.689036    11.722161    -23.529783    -3.011767    -18.971012    -0.387021    17.394339    -2.774612    -0.710989    17.392693    -1.233082    -14.555492    -4.766453    8.820458    23.444012    1.421518    2.120954    2.938002    7.473146    4.017977    -1.073366    7.382890    -1.287612    -2.199034    14.270589    -4.652784    3.257171    1.147883    -0.324357    -0.516282    -7.047101    15.203021    0.000000    0.000000    0.000000    1.571646    11.578019    3.455395    -3.696048    2.214066    0.924046    1.641889    -5.553685    -0.576863    0.000000    0.000000    0.000000    
-0.286443    0.730280    0.227549    0.074393    4.758166    176.589966    0.570777    1.875678    -0.043539    -1.380402    -2.966432    -0.043462    0.806290    9.305111    -22.578575    5.256269    -3.624760    -23.603235    14.459240    0.679194    11.744156    -23.534985    -2.998266    -18.989622    -0.364630    17.387955    -2.799293    -0.763568    17.387190    -1.215909    -14.647972    -4.935616    8.767799    23.620504    1.556931    2.124411    2.900292    7.473639    3.992801    -1.118994    7.385715    -1.274801    -2.152909    14.294230    -4.578232    3.243357    1.129359    0.453152    -0.637816    -7.002330    14.314594    0.000000    0.000000    0.000000    1.677919    11.550443    3.497172    -3.806669    2.397893    0.696218    1.687882    -5.606099    -0.425128    0.000000    0.000000    0.000000    
-0.286412    0.730378    0.227558    0.043219    4.818778    176.612350    0.532008    1.917866    -0.029416    -1.384815    -2.947920    -0.049528    0.809840    9.290763    -22.678581    5.235653    -3.635131    -23.702957    14.462091    0.657255    11.748562    -23.527531    -3.023279    -18.995802    -0.383924    17.431135    -2.793345    -0.756386    17.431812    -1.526601    -14.647519    -4.932387    8.767000    23.623405    1.558178    2.115272    2.910068    7.485723    3.987593    -1.103363    7.397103    -1.240933    -2.186781    14.338697    -4.240755    3.236354    1.245347    -0.602242    -0.523081    -7.114532    15.085799    0.000000    0.000000    0.000000    1.655637    11.614783    3.473093    -3.813164    2.385050    0.619892    1.689813    -5.571833    -0.351603    0.000000    0.000000    0.000000    
-0.286383    0.730383    0.227658    0.037084    4.824346    176.638687    0.530331    1.914603    -0.031681    -1.397913    -2.943667    -0.051439    0.807826    9.294190    -22.789722    5.230628    -3.657280    -23.816027    14.461517    0.676749    11.743534    -23.535521    -3.051943    -19.004236    -0.363508    17.439466    -2.798294    -0.752006    17.440626    -1.538211    -14.639751    -4.929337    8.784166    23.624512    1.553087    2.092279    2.902565    7.476001    3.988633    -1.073521    7.387327    -1.243987    -2.177596    14.374306    -4.579287    3.245662    1.148507    -0.400650    -0.479964    -7.040782    15.155972    0.000000    0.000000    0.000000    1.652016    11.616582    3.495907    -3.799254    2.382069    0.580783    1.683650    -5.569741    -0.370163    0.000000    0.000000    0.000000    
-0.286365    0.730315    0.227782    0.058195    4.783301    176.654846    0.566471    1.862070    -0.026915    -1.417240    -2.934709    -0.045974    0.868208    9.368212    -23.004313    5.190094    -3.839251    -24.011253    14.463515    0.681290    11.756704    -23.536489    -3.063692    -19.033001    -0.382057    17.453022    -2.819635    -0.718396    17.451496    -1.245017    -14.630913    -4.919144    8.782175    23.621695    1.566495    2.089167    2.904172    7.470708    3.983981    -1.065985    7.381884    -1.229169    -2.150957    14.326426    -4.579683    3.253399    1.145001    -0.427455    -0.519179    -7.058108    15.161341    0.000000    0.000000    0.000000    1.629160    11.667488    3.483397    -3.716005    2.197187    0.773320    1.181059    -5.652459    -0.649125    0.000000    0.000000    0.000000    
-0.286651    0.730177    0.227985    -0.000945    4.728561    176.703537    0.581225    1.808502    -0.051454    -1.493605    -2.941281    -0.052532    0.792597    9.278906    -23.046440    5.224493    -3.676012    -24.081549    14.462560    0.683989    11.771333    -23.540062    -3.106118    -19.029573    -0.380152    17.470608    -2.858408    -0.744151    17.469093    -1.216761    -14.530878    -4.777210    8.857998    23.461121    1.392507    2.037911    2.942544    7.480179    4.037747    -1.009942    7.388173    -1.240532    -2.246674    14.246949    -4.747694    3.306282    1.159651    -0.269022    -0.524258    -7.073294    15.130733    0.000000    0.000000    0.000000    1.641013    11.477880    3.354385    -3.764422    2.427307    0.680064    1.144530    -5.822359    -0.684087    0.000000    0.000000    0.000000    
-0.286746    0.730309    0.228136    -0.065467    4.747981    176.737183    0.529928    1.834601    -0.061022    -1.517090    -2.956357    -0.055720    0.807361    9.269622    -23.185768    5.177443    -3.698620    -24.216391    14.462309    0.675438    11.780262    -23.522331    -3.094240    -19.030033    -0.386478    17.463266    -2.859062    -0.752207    17.461582    -1.201188    -14.618934    -4.926981    8.796202    23.635057    1.536557    2.068913    2.886406    7.440389    3.993400    -1.053403    7.351866    -1.237347    -2.321378    14.202207    -4.811803    3.312205    1.172063    0.560907    -0.583001    -6.935085    14.332187    0.000000    0.000000    0.000000    1.447095    11.571129    3.326300    -3.636823    2.258782    0.916494    1.651536    -5.641998    -0.582896    0.000000    0.000000    0.000000    
-0.286261    0.730418    0.228026    0.009811    4.868870    176.744293    0.510766    1.937091    -0.057249    -1.440921    -2.937070    -0.049487    0.832259    9.240612    -23.322847    5.120078    -3.692905    -24.347275    14.482358    0.673064    11.782189    -23.538002    -3.130168    -19.015169    -0.401055    17.487803    -2.879386    -0.728116    17.485329    -1.180025    -14.528045    -4.776380    8.861006    23.484406    1.379083    2.027574    2.933913    7.440858    4.042137    -1.077765    7.349720    -1.238651    -2.181081    14.355941    -4.578466    3.239455    1.223216    -0.347340    -0.547960    -7.061857    15.058678    0.000000    0.000000    0.000000    1.596226    11.741952    3.465894    -3.700594    2.194457    0.747067    1.186583    -5.630067    -0.676477    0.000000    0.000000    0.000000    
